<svg width="24" height="24" viewBox="0 0 24 24" fill="none" xmlns="http://www.w3.org/2000/svg">
<path d="M12 2C17.5228 2 22 6.47715 22 12C22 17.5228 17.5228 22 12 22C6.47715 22 2 17.5228 2 12C2 6.47715 6.47715 2 12 2ZM9.20703 7.79199C8.81651 7.40147 8.18349 7.40147 7.79297 7.79199C7.40244 8.18252 7.40244 8.81553 7.79297 9.20605L10.5859 12L7.79297 14.793C7.40254 15.1835 7.40255 15.8165 7.79297 16.207C8.18347 16.5975 8.8165 16.5975 9.20703 16.207L12.001 13.4141L14.793 16.2061C15.1835 16.5966 15.8165 16.5966 16.207 16.2061C16.5976 15.8155 16.5976 15.1825 16.207 14.792L13.415 12L16.207 9.20703C16.5976 8.81651 16.5976 8.18349 16.207 7.79297C15.8165 7.40253 15.1835 7.40247 14.793 7.79297L12.001 10.585L9.20703 7.79199Z" fill="black"/>
</svg>
