<svg width="24" height="24" viewBox="0 0 24 24" fill="none" xmlns="http://www.w3.org/2000/svg">
<path d="M15.579 7.00771C15.9695 6.61734 16.6026 6.61727 16.9931 7.00771C17.3829 7.39823 17.3833 8.03143 16.9931 8.42178L13.413 12.0009L16.9921 15.58C17.3821 15.9706 17.3825 16.6037 16.9921 16.994C16.6017 17.384 15.9684 17.3839 15.578 16.994L11.9999 13.4149L8.42177 16.994C8.03138 17.384 7.39814 17.3839 7.0077 16.994C6.61729 16.6037 6.61757 15.9706 7.0077 15.58L10.5858 12.0009L7.0077 8.42178C6.61723 8.03125 6.61722 7.39822 7.0077 7.00771C7.39824 6.61723 8.03126 6.61721 8.42177 7.00771L11.9999 10.5858L15.579 7.00771Z" fill="black"/>
</svg>
