<svg width="104" height="104" viewBox="0 0 104 104" fill="none" xmlns="http://www.w3.org/2000/svg">
<path fill-rule="evenodd" clip-rule="evenodd" d="M47.4964 25.0093C43.2783 25.0093 39.8589 28.4287 39.8589 32.6468V58.177L37.7744 56.5415C34.2924 53.8094 29.2864 54.2549 26.3416 57.5589C23.7525 60.4638 23.5027 64.7684 25.7384 67.9532L37.0057 84.0038C39.0081 86.8563 40.4373 90.0705 41.2138 93.468C42.2508 98.0046 46.2863 101.222 50.9399 101.222H65.8553C71.919 101.222 77.1773 97.0297 78.5285 91.1185L79.1584 88.3625C83.184 82.961 85.3589 76.4039 85.3589 69.6665V59.2968H85.3584V58.9718C85.3584 54.7537 81.939 51.3343 77.7209 51.3343C76.7671 51.3343 75.8541 51.5091 75.0122 51.8285C74.125 48.593 71.1631 46.2155 67.6459 46.2155C66.6414 46.2155 65.6822 46.4095 64.8037 46.7619C63.7799 43.7507 60.9284 41.5843 57.5709 41.5843C56.7188 41.5843 55.8992 41.7238 55.1339 41.9813V32.6468C55.1339 28.4287 51.7145 25.0093 47.4964 25.0093ZM75.2834 58.9718V59.703V63.8468C75.2834 65.2827 74.1194 66.4468 72.6834 66.4468C71.2475 66.4468 70.0834 65.2827 70.0834 63.8468V59.703V58.9718V53.853C70.0834 52.5068 68.9921 51.4155 67.6459 51.4155C66.2998 51.4155 65.2084 52.5068 65.2084 53.853V57.103V59.703C65.2084 61.139 64.0444 62.303 62.6084 62.303C61.1725 62.303 60.0084 61.139 60.0084 59.703V57.103V53.853V49.2218C60.0084 47.8756 58.9171 46.7843 57.5709 46.7843C56.2403 46.7843 55.1587 47.8505 55.1339 49.1752V50.3593H55.1334V57.103C55.1334 58.539 53.9694 59.703 52.5334 59.703C51.0975 59.703 49.9334 58.539 49.9334 57.103V49.2218L49.9339 49.1393V32.6468C49.9339 31.3006 48.8426 30.2093 47.4964 30.2093C46.1502 30.2093 45.0589 31.3006 45.0589 32.6468V63.5218C45.0589 64.5168 44.491 65.4246 43.5962 65.8598C42.7015 66.2951 41.6368 66.1815 40.8539 65.5673L34.5645 60.6325C33.2424 59.5951 31.3416 59.7643 30.2235 61.0188C29.2404 62.1218 29.1455 63.7563 29.9944 64.9655L41.2617 81.0162C43.6511 84.4198 45.3564 88.2553 46.2831 92.3093C46.7796 94.4814 48.7118 96.0218 50.9399 96.0218H65.8553C69.4935 96.0218 72.6485 93.5066 73.4592 89.9598L74.099 87.1607C74.2542 86.4817 74.5498 85.8427 74.9668 85.2849C78.3375 80.7754 80.1589 75.2965 80.1589 69.6665V63.8949C80.1586 63.8789 80.1584 63.8629 80.1584 63.8468V58.9718C80.1584 57.6256 79.0671 56.5343 77.7209 56.5343C76.3748 56.5343 75.2834 57.6256 75.2834 58.9718Z" fill="black"/>
<path d="M72.9029 37.8346C73.6118 34.889 73.8141 31.7687 73.4231 28.5845C71.6731 14.3321 58.7007 4.1969 44.4483 5.94688C30.1959 7.69685 20.0607 20.6693 21.8107 34.9217C22.4086 39.7913 24.3166 44.1803 27.1382 47.7789" stroke="black" stroke-width="5.2" stroke-linecap="round"/>
<path d="M34.1461 36.9727C33.607 35.5807 33.2763 34.0807 33.194 32.5089C32.7764 24.5424 38.8961 17.7458 46.8626 17.3283C54.8292 16.9108 61.6257 23.0304 62.0432 30.997C62.1256 32.5688 61.9535 34.0951 61.5629 35.5359" stroke="black" stroke-width="5.2" stroke-linecap="round"/>
</svg>
