<svg width="104" height="104" viewBox="0 0 104 104" fill="none" xmlns="http://www.w3.org/2000/svg">
<path fill-rule="evenodd" clip-rule="evenodd" d="M67.6001 12.6751C67.6001 9.80322 65.2719 7.4751 62.4001 7.4751H59.1501C56.2782 7.4751 53.9501 9.80322 53.9501 12.6751V13.7313H50.0501V12.6751C50.0501 9.80322 47.7219 7.4751 44.8501 7.4751H41.6001C38.7282 7.4751 36.4001 9.80322 36.4001 12.6751V13.7313H11.9438V48.2626H20.8V59.1501C13.6203 59.1501 7.80005 64.9704 7.80005 72.1501V88.7251C7.80005 93.0329 11.2922 96.5251 15.6 96.5251H20.8H26H78.0001H83.2001H88.4001C92.7079 96.5251 96.2001 93.0329 96.2001 88.7251V72.1501C96.2001 64.9704 90.3798 59.1501 83.2001 59.1501V48.2626H92.055V13.7313H67.6001V12.6751ZM36.4001 18.9313H17.1438V43.0626H20.8V41.9251C20.8 32.7563 27.5801 25.171 36.4001 23.9094V18.9313ZM41.6001 23.7251H44.8501V12.6751H41.6001V23.7251ZM50.0501 28.9251H39.0001C38.1096 28.9251 37.2401 29.0146 36.4001 29.1851V46.0689C36.4001 51.5095 39.7423 56.1696 44.4856 58.1078C45.402 54.8193 48.4193 52.4064 52.0001 52.4064C55.5808 52.4064 58.5981 54.8193 59.5145 58.1078C64.2578 56.1696 67.6001 51.5095 67.6001 46.0689V29.1851C66.76 29.0146 65.8905 28.9251 65.0001 28.9251H53.9501H50.0501ZM50.0501 23.7251V18.9313H53.9501V23.7251H50.0501ZM62.4001 23.7251H59.1501V12.6751H62.4001V23.7251ZM67.6001 18.9313V23.9094C76.42 25.171 83.2001 32.7563 83.2001 41.9251V43.0626H86.855V18.9313H67.6001ZM78.0001 91.3251V81.9253C71.0481 84.4846 63.6883 85.8001 56.2587 85.8001H48.0658C40.5205 85.8001 33.0472 84.4433 26 81.8049V91.3251H78.0001ZM26 76.2169C32.9922 79.1089 40.4894 80.6001 48.0658 80.6001H56.2587C63.718 80.6001 71.1007 79.1546 78.0001 76.3499V59.1501V41.9251C78.0001 37.672 75.9576 33.8959 72.8001 31.5241V46.0689C72.8001 54.3255 67.302 61.2979 59.7674 63.5249C59.4047 67.4959 56.0656 70.6064 52.0001 70.6064C47.9345 70.6064 44.5954 67.4959 44.2327 63.5249C36.6981 61.2979 31.2001 54.3255 31.2001 46.0689V31.5241C28.0425 33.8959 26 37.672 26 41.9251V59.1501V76.2169ZM20.8 91.3251V74.5876H13V88.7251C13 90.161 14.1641 91.3251 15.6 91.3251H20.8ZM13.5034 69.3876H20.8V64.3501C17.4649 64.3501 14.6187 66.4433 13.5034 69.3876ZM83.2001 64.3501V69.3876H90.4967C89.3814 66.4433 86.5352 64.3501 83.2001 64.3501ZM91.0001 74.5876H83.2001V91.3251H88.4001C89.836 91.3251 91.0001 90.161 91.0001 88.7251V74.5876ZM52.0001 65.4064C50.5641 65.4064 49.4001 64.2423 49.4001 62.8064V60.2064C49.4001 58.7704 50.5641 57.6064 52.0001 57.6064C53.436 57.6064 54.6001 58.7704 54.6001 60.2064V62.8064C54.6001 64.2423 53.436 65.4064 52.0001 65.4064Z" fill="black"/>
</svg>
