<svg width="24" height="24" viewBox="0 0 24 24" fill="none" xmlns="http://www.w3.org/2000/svg">
<path d="M18 1C20.2091 1 22 2.79086 22 5V19C22 21.2091 20.2091 23 18 23H6C3.79086 23 2 21.2091 2 19V5C2 2.79086 3.79086 1 6 1H18ZM7 16C6.44772 16 6 16.4477 6 17C6 17.5523 6.44772 18 7 18C7.55228 18 8 17.5523 8 17C8 16.4477 7.55228 16 7 16ZM11 16C10.4477 16 10 16.4477 10 17C10 17.5523 10.4477 18 11 18H17C17.5523 18 18 17.5523 18 17C18 16.4477 17.5523 16 17 16H11ZM7 11C6.44772 11 6 11.4477 6 12C6 12.5523 6.44772 13 7 13C7.55228 13 8 12.5523 8 12C8 11.4477 7.55228 11 7 11ZM11 11C10.4477 11 10 11.4477 10 12C10 12.5523 10.4477 13 11 13H17C17.5523 13 18 12.5523 18 12C18 11.4477 17.5523 11 17 11H11ZM7 6C6.44772 6 6 6.44772 6 7C6 7.55228 6.44772 8 7 8C7.55228 8 8 7.55228 8 7C8 6.44772 7.55228 6 7 6ZM11 6C10.4477 6 10 6.44772 10 7C10 7.55228 10.4477 8 11 8H17C17.5523 8 18 7.55228 18 7C18 6.44772 17.5523 6 17 6H11Z" fill="black"/>
</svg>
