<svg width="24" height="24" viewBox="0 0 24 24" fill="none" xmlns="http://www.w3.org/2000/svg">
<path d="M13.0615 1C13.5535 1 14.0125 1.23107 14.2812 1.61426L15.6699 3.59473L17.9922 4.8418L20.5312 4.96973C21.0225 4.99457 21.4669 5.24926 21.7129 5.64551L22.8047 7.40332C23.0507 7.79957 23.0652 8.28532 22.8427 8.69336L21.6924 10.8018V13.1982L22.8427 15.3066C23.0652 15.7147 23.0507 16.2004 22.8047 16.5967L21.7129 18.3545C21.4669 18.7507 21.0225 19.0054 20.5312 19.0303L17.9922 19.1582L15.7304 20.4053L14.3418 22.3857C14.073 22.7689 13.614 23 13.122 23H10.9384C10.4465 23 9.98747 22.7689 9.71872 22.3857L8.33005 20.4053L6.00778 19.1582L3.46872 19.0303C2.97746 19.0054 2.53308 18.7507 2.28708 18.3545L1.19528 16.5967C0.949284 16.2004 0.934701 15.7147 1.1572 15.3066L2.30759 13.1982V10.8018L1.1572 8.69336C0.934701 8.28532 0.949284 7.79957 1.19528 7.40332L2.28708 5.64551C2.53308 5.24926 2.97746 4.99457 3.46872 4.96973L6.00778 4.8418L8.2695 3.59473L9.65818 1.61426C9.92692 1.23106 10.3859 1 10.8779 1H13.0615ZM13.7324 9C12.6606 8.3812 11.3393 8.3812 10.2676 9C9.19593 9.61875 8.53624 10.7626 8.5361 12C8.5361 13.2374 9.19602 14.3811 10.2676 15C11.3393 15.6188 12.6606 15.6188 13.7324 15C14.8039 14.3811 15.4638 13.2374 15.4638 12C15.4637 10.7626 14.804 9.61875 13.7324 9Z" fill="black"/>
</svg>
