<svg width="32" height="32" viewBox="0 0 32 32" fill="none" xmlns="http://www.w3.org/2000/svg">
<path d="M27 4C27.5523 4 28 4.44772 28 5V16.7305C28.622 17.4355 29 18.3609 29 19.375V19.3848C30.1213 19.4858 31 20.4276 31 21.5752V24.1748C31 25.3898 30.0148 26.375 28.7998 26.375H27V27C27 27.5523 26.5523 28 26 28C25.4477 28 25 27.5523 25 27V26.375H7V27C7 27.5523 6.55228 28 6 28C5.44772 28 5 27.5523 5 27V26.375H3.2002C1.98518 26.375 1 25.3898 1 24.1748V21.5752C1 20.4276 1.87873 19.4858 3 19.3848V19.375C3 18.3609 3.37802 17.4355 4 16.7305V5C4 4.44772 4.44772 4 5 4C5.55228 4 6 4.44772 6 5V7.375H10.6494L10.9229 7.15625C12.3639 6.00344 14.1546 5.375 16 5.375C17.8454 5.375 19.6361 6.00344 21.0771 7.15625L21.3506 7.375H26V5C26 4.44772 26.4477 4 27 4ZM3.2002 21.375C3.08974 21.375 3 21.4647 3 21.5752V24.1748C3 24.2853 3.08974 24.375 3.2002 24.375H28.7998C28.9103 24.375 29 24.2853 29 24.1748V21.5752C29 21.4647 28.9103 21.375 28.7998 21.375H3.2002ZM7 17.375C5.89543 17.375 5 18.2704 5 19.375H27C27 18.2704 26.1046 17.375 25 17.375H7ZM16 7.375C14.6088 7.375 13.2592 7.84872 12.1729 8.71777L11.3506 9.375H6V15.375H7.45508C7.86719 14.2103 8.9754 13.375 10.2812 13.375H12.2812C13.5871 13.375 14.6953 14.2103 15.1074 15.375H16.8926C17.3047 14.2103 18.4129 13.375 19.7188 13.375H21.7188C23.0246 13.375 24.1328 14.2103 24.5449 15.375H26V9.375H20.6494L19.8271 8.71777C18.7408 7.84872 17.3912 7.375 16 7.375Z" fill="black"/>
</svg>
