<svg width="32" height="32" viewBox="0 0 32 32" fill="none" xmlns="http://www.w3.org/2000/svg">
<path d="M15.6064 3.08041C15.8577 2.97287 16.1423 2.97287 16.3936 3.08041L30.3936 9.08041C30.7612 9.23798 31 9.6003 31 10.0003V13.1878C30.9998 13.74 30.5522 14.1878 30 14.1878H29V15.7874C29 16.4862 28.4877 17.0633 27.8184 17.1683L28.1826 27.0003H30C30.5523 27.0003 31 27.448 31 28.0003C30.9998 28.5525 30.5522 29.0003 30 29.0003H2C1.44782 29.0003 1.00016 28.5525 1 28.0003C1 27.448 1.44772 27.0003 2 27.0003H3.81836L4.18066 17.1683C3.51182 17.0629 3 16.4859 3 15.7874V14.1878H2C1.44782 14.1878 1.00016 13.74 1 13.1878V10.0003C1 9.6003 1.23876 9.23798 1.60645 9.08041L15.6064 3.08041ZM5.81934 27.0003H8.18066L7.81836 17.1878H6.18164L5.81934 27.0003ZM11 15.7874C11 16.4862 10.4877 17.0633 9.81836 17.1683L10.1826 27.0003H12.8184L13.1807 17.1683C12.5118 17.0629 12 16.4859 12 15.7874V14.1878H11V15.7874ZM14.8193 27.0003H17.1807L16.8184 17.1878H15.1816L14.8193 27.0003ZM20 14.1878V15.7874C20 16.4862 19.4877 17.0633 18.8184 17.1683L19.1826 27.0003H21.8184L22.1807 17.1683C21.5118 17.0629 21 16.4859 21 15.7874V14.1878H20ZM24.1816 17.1878L23.8193 27.0003H26.1807L25.8184 17.1878H24.1816ZM5 15.1878H9V14.1878H5V15.1878ZM14 15.1878H18V14.1878H14V15.1878ZM23 15.1878H27V14.1878H23V15.1878ZM3 10.6595V12.1878H29V10.6595L16 5.08822L3 10.6595ZM15.6064 7.08041C15.8577 6.97287 16.1423 6.97288 16.3936 7.08041L19.8936 8.58041C20.4012 8.79796 20.6365 9.38625 20.4189 9.89388C20.2014 10.4014 19.614 10.6366 19.1064 10.4193L16 9.08822L12.8936 10.4193C12.386 10.6366 11.7986 10.4014 11.5811 9.89388C11.3635 9.38625 11.5988 8.79796 12.1064 8.58041L15.6064 7.08041Z" fill="black"/>
</svg>
