<svg width="32" height="32" viewBox="0 0 32 32" fill="none" xmlns="http://www.w3.org/2000/svg">
<path d="M18.249 2C22.1307 2.00006 25.2771 5.14669 25.2773 9.02832C25.2773 9.74099 25.1708 10.4311 24.9727 11.0811C26.2289 12.4264 27 14.2344 27 16.2217C27 20.3826 23.6267 23.7557 19.4658 23.7559C18.6036 23.7559 17.7734 23.6105 17 23.3428V28H21C21.5523 28 22 28.4477 22 29C22 29.5523 21.5523 30 21 30H11C10.4477 30 10 29.5523 10 29C10 28.4477 10.4477 28 11 28H15V23.6543C14.5715 23.7193 14.1335 23.7559 13.6875 23.7559C8.88953 23.7559 5 19.8663 5 15.0684C5.00008 10.9743 7.83123 7.54296 11.6426 6.62305C12.6249 3.92639 15.2111 2 18.249 2ZM18.249 4C15.9183 4 13.9556 5.58659 13.3867 7.74023C13.2862 8.12077 12.9713 8.40725 12.583 8.47168C9.41541 8.99751 7.00008 11.7518 7 15.0684C7 18.7618 9.9941 21.7559 13.6875 21.7559C14.1373 21.7559 14.5759 21.7103 15 21.626V16.7861C14.9926 16.7792 14.9847 16.7728 14.9775 16.7656L12.6367 14.4258C12.2464 14.0353 12.2464 13.4022 12.6367 13.0117C13.0272 12.6213 13.6602 12.6214 14.0508 13.0117L15 13.96V11.3125C15 10.7602 15.4477 10.3125 16 10.3125C16.5523 10.3125 17 10.7602 17 11.3125V16.9609L17.9492 16.0117C18.3397 15.6212 18.9728 15.6212 19.3633 16.0117C19.7537 16.4022 19.7537 17.0353 19.3633 17.4258L17.0234 19.7656C17.0162 19.7729 17.0074 19.7791 17 19.7861V21.1904C17.0417 21.2036 17.083 21.2186 17.123 21.2373C17.8331 21.5695 18.6267 21.7559 19.4658 21.7559C22.5222 21.7557 25 19.2781 25 16.2217C25 14.5805 24.287 13.1067 23.1504 12.0918C22.8328 11.8082 22.729 11.355 22.8926 10.9619C23.14 10.3682 23.2773 9.71517 23.2773 9.02832C23.2771 6.25126 21.0261 4.00006 18.249 4Z" fill="black"/>
</svg>
