<svg width="32" height="32" viewBox="0 0 32 32" fill="none" xmlns="http://www.w3.org/2000/svg">
<path d="M28 27C28.5523 27 29 27.4477 29 28C29 28.5523 28.5523 29 28 29H4C3.44772 29 3 28.5523 3 28C3 27.4477 3.44772 27 4 27H28ZM16 8.79102C22.2339 8.79102 27.3569 13.5449 27.9434 19.625H29C29.5523 19.625 30 20.0727 30 20.625C30 21.1773 29.5523 21.625 29 21.625H27.9707C27.9075 22.5453 27.7411 23.438 27.4814 24.291L27.2656 25H4.73438L4.51855 24.291C4.25885 23.438 4.09252 22.5453 4.0293 21.625H3C2.44772 21.625 2 21.1773 2 20.625C2 20.0727 2.44772 19.625 3 19.625H4.05664C4.64313 13.5449 9.76611 8.79102 16 8.79102ZM16 10.791C10.4773 10.791 6.0002 15.2683 6 20.791C6 21.5508 6.08422 22.2902 6.24414 23H25.7559C25.9158 22.2902 26 21.5508 26 20.791C25.9998 15.2683 21.5227 10.791 16 10.791ZM16 12.791C19.0294 12.791 21.6644 14.4757 23.0215 16.9541C23.2865 17.4385 23.1084 18.0463 22.624 18.3115C22.1397 18.5765 21.5319 18.3992 21.2666 17.915C20.2463 16.0517 18.2697 14.791 16 14.791C15.4477 14.791 15 14.3433 15 13.791C15.0002 13.2389 15.4478 12.791 16 12.791ZM12 3C12.5523 3 13 3.44772 13 4V5C13 5.55228 12.5523 6 12 6C11.4477 6 11 5.55228 11 5V4C11 3.44772 11.4477 3 12 3ZM16 1C16.5523 1 17 1.44772 17 2V5C17 5.55228 16.5523 6 16 6C15.4477 6 15 5.55228 15 5V2C15 1.44772 15.4477 1 16 1ZM20 3C20.5523 3 21 3.44772 21 4V5C21 5.55228 20.5523 6 20 6C19.4477 6 19 5.55228 19 5V4C19 3.44772 19.4477 3 20 3Z" fill="black"/>
</svg>
