<svg width="24" height="24" viewBox="0 0 24 24" fill="none" xmlns="http://www.w3.org/2000/svg">
<path d="M13.3818 2C14.5181 2 15.5572 2.64193 16.0654 3.6582L17.2363 6H22C22.5523 6 23 6.44772 23 7C23 7.55228 22.5523 8 22 8H20.0283L18.1123 19.4932C17.8712 20.9396 16.6197 21.9998 15.1533 22H8.84766C7.38114 22 6.12879 20.9397 5.8877 19.4932L3.97266 8H2C1.44772 8 1 7.55228 1 7C1 6.44772 1.44772 6 2 6H6.76465L7.93457 3.6582C8.44273 2.64188 9.48189 2.00004 10.6182 2H13.3818ZM7.86035 19.1641C7.94072 19.6463 8.35882 20 8.84766 20H15.1533C15.642 19.9998 16.0593 19.6461 16.1396 19.1641L18 8H6L7.86035 19.1641ZM10 11C10.5523 11 11 11.4477 11 12V16C11 16.5523 10.5523 17 10 17C9.44772 17 9 16.5523 9 16V12C9 11.4477 9.44772 11 10 11ZM14 11C14.5523 11 15 11.4477 15 12V16C15 16.5523 14.5523 17 14 17C13.4477 17 13 16.5523 13 16V12C13 11.4477 13.4477 11 14 11ZM10.6182 4C10.2394 4.00004 9.89301 4.21398 9.72363 4.55273L9 6H15L14.2764 4.55273C14.1069 4.21403 13.7606 4 13.3818 4H10.6182Z" fill="black"/>
</svg>
