<svg width="24" height="24" viewBox="0 0 24 24" fill="none" xmlns="http://www.w3.org/2000/svg">
<path d="M5.8064 14.25C4.24268 14.25 2.99976 13.0049 2.99976 11.5C2.99976 9.99513 4.24268 8.75 5.8064 8.75C7.36997 8.75016 8.61206 9.99523 8.61206 11.5C8.61206 13.0048 7.36997 14.2498 5.8064 14.25Z" stroke="black" stroke-width="2"/>
<path d="M15.1936 4C16.7573 4 18.0002 5.24513 18.0002 6.75C18.0002 8.25487 16.7573 9.5 15.1936 9.5C13.63 9.49984 12.3879 8.25477 12.3879 6.75C12.3879 5.24523 13.63 4.00016 15.1936 4Z" stroke="black" stroke-width="2"/>
<path d="M15.1936 14.5C16.7573 14.5 18.0002 15.7451 18.0002 17.25C18.0002 18.7549 16.7573 20 15.1936 20C13.63 19.9998 12.3879 18.7548 12.3879 17.25C12.3879 15.7452 13.63 14.5002 15.1936 14.5Z" stroke="black" stroke-width="2"/>
<path d="M13.181 8.8515C13.6513 8.5619 13.7977 7.94591 13.5081 7.47564C13.2185 7.00537 12.6025 6.85891 12.1323 7.1485L12.6566 8L13.181 8.8515ZM12.6566 8L12.1323 7.1485L8.07256 9.6485L8.59692 10.5L9.12128 11.3515L13.181 8.8515L12.6566 8Z" fill="black"/>
<path d="M12.6568 16L8.0896 12.5" stroke="black" stroke-width="2"/>
</svg>
