<svg width="24" height="24" viewBox="0 0 24 24" fill="none" xmlns="http://www.w3.org/2000/svg">
<path d="M5 17C6.65685 17 8 18.3431 8 20C8 21.6569 6.65685 23 5 23C3.34315 23 2 21.6569 2 20C2 18.3431 3.34315 17 5 17ZM19 1C20.6569 1 22 2.34315 22 4C22 5.65685 20.6569 7 19 7C17.6941 7 16.5859 6.16468 16.1738 5H7C5.34315 5 4 6.34315 4 8V8.25879C4 9.91564 5.34315 11.2588 7 11.2588H17.1299C19.8196 11.2589 22 13.4401 22 16.1299C21.9999 18.8195 19.8195 20.9999 17.1299 21H15.4141L15.707 21.293C16.0976 21.6835 16.0976 22.3165 15.707 22.707C15.3165 23.0975 14.6835 23.0976 14.293 22.707L11.5859 20L14.293 17.293C14.6835 16.9024 15.3165 16.9025 15.707 17.293C16.0976 17.6835 16.0976 18.3165 15.707 18.707L15.4141 19H17.1299C18.7149 18.9999 19.9999 17.7149 20 16.1299C20 14.5447 18.715 13.2589 17.1299 13.2588H7C4.23858 13.2588 2 11.0202 2 8.25879V8C2 5.23858 4.23858 3 7 3H16.1738C16.5859 1.83532 17.6941 1 19 1Z" fill="black"/>
</svg>
